<svg width="177" height="150" viewBox="0 0 177 150" fill="none" xmlns="http://www.w3.org/2000/svg">
<g filter="url(#filter0_d_847_566)">
<path d="M39.6157 123.607C39.6157 119.417 24.2521 71.2314 4 47.8368C19.3636 52.7252 35.4256 55.4488 61.9628 74.7231C68.9463 65.9938 79.0723 55.1694 88.5 46.4401V123.607H39.6157Z" fill="white"/>
<path d="M77.3264 39.8058V50.6302C79.1887 48.6515 84.0306 43.926 88.5 40.8533V0H77.3264V19.5537H60.5661V39.8058H77.3264Z" fill="white"/>
<path d="M137.384 123.607C137.384 119.417 152.748 71.2314 173 47.8368C157.636 52.7252 141.574 55.4488 115.037 74.7231C108.054 65.9938 97.9277 55.1694 88.5 46.4401V123.607H137.384Z" fill="white"/>
<path d="M99.6736 39.8058V50.6302C97.8113 48.6515 92.9694 43.926 88.5 40.8533V0H99.6736V19.5537H116.434V39.8058H99.6736Z" fill="white"/>
<path fill-rule="evenodd" clip-rule="evenodd" d="M77.3265 50.6302V39.8058H66.8513V24.7913H83.2624V4.88843H88.5L88.5 40.8533C84.0306 43.926 79.1887 48.6515 77.3265 50.6302ZM46.5992 123.607C45.9009 111.736 28.4422 68.0888 20.062 60.0579C34.029 64.2479 54.7466 77.6329 63.3595 83.8016C68.1083 77.6562 82.0985 64.0151 88.5 57.9628V123.607H46.5992Z" fill="#EAEAEA"/>
<path fill-rule="evenodd" clip-rule="evenodd" d="M20.062 60.0579C28.4422 68.0889 45.9009 111.736 46.5992 123.607H52.8843C49.1244 99.5437 37.2106 75.7425 30.0105 63.9609C26.5026 62.3339 23.1205 60.9754 20.062 60.0579Z" fill="#111117"/>
<rect x="39.6157" y="129.893" width="97.7686" height="11.1736" rx="3" fill="white"/>
<rect x="46.5992" y="132.686" width="83.4292" height="5.58678" rx="1" fill="#C9D0D2"/>
<rect x="46.5992" y="132.686" width="6.28512" height="5.58678" rx="1" fill="#111117"/>
</g>
<defs>
<filter id="filter0_d_847_566" x="0" y="0" width="177" height="149.066" filterUnits="userSpaceOnUse" color-interpolation-filters="sRGB">
<feFlood flood-opacity="0" result="BackgroundImageFix"/>
<feColorMatrix in="SourceAlpha" type="matrix" values="0 0 0 0 0 0 0 0 0 0 0 0 0 0 0 0 0 0 127 0" result="hardAlpha"/>
<feOffset dy="4"/>
<feGaussianBlur stdDeviation="2"/>
<feComposite in2="hardAlpha" operator="out"/>
<feColorMatrix type="matrix" values="0 0 0 0 0 0 0 0 0 0 0 0 0 0 0 0 0 0 0.25 0"/>
<feBlend mode="normal" in2="BackgroundImageFix" result="effect1_dropShadow_847_566"/>
<feBlend mode="normal" in="SourceGraphic" in2="effect1_dropShadow_847_566" result="shape"/>
</filter>
</defs>
</svg>
