<svg width="169" height="142" viewBox="0 0 169 142" fill="none" xmlns="http://www.w3.org/2000/svg">
<path d="M35.6157 123.607C35.6157 119.417 20.2521 71.2314 0 47.8368C15.3636 52.7252 31.4256 55.4488 57.9628 74.7231C64.9463 65.9938 75.0723 55.1694 84.5 46.4401V123.607H35.6157Z" fill="#111117"/>
<path d="M73.3264 39.8058V50.6302C75.1887 48.6515 80.0306 43.926 84.5 40.8533V0H73.3264V19.5537H56.5661V39.8058H73.3264Z" fill="#111117"/>
<path d="M133.384 123.607C133.384 119.417 148.748 71.2314 169 47.8368C153.636 52.7252 137.574 55.4488 111.037 74.7231C104.054 65.9938 93.9277 55.1694 84.5 46.4401V123.607H133.384Z" fill="#111117"/>
<path d="M95.6736 39.8058V50.6302C93.8113 48.6515 88.9694 43.926 84.5 40.8533V0H95.6736V19.5537H112.434V39.8058H95.6736Z" fill="#111117"/>
<path fill-rule="evenodd" clip-rule="evenodd" d="M73.3265 50.6302V39.8058H62.8513V24.7913H79.2624V4.88843H84.5L84.5 40.8533C80.0306 43.926 75.1887 48.6515 73.3265 50.6302ZM42.5992 123.607C41.9009 111.736 24.4422 68.0888 16.062 60.0578C30.029 64.2479 50.7466 77.6329 59.3595 83.8017C64.1083 77.6562 78.0985 64.0151 84.5 57.9628V123.607H42.5992Z" fill="#3C3C4A"/>
<path fill-rule="evenodd" clip-rule="evenodd" d="M16.062 60.0579C24.4422 68.0889 41.9009 111.736 42.5992 123.607H48.8843C45.1244 99.5437 33.2106 75.7425 26.0105 63.9609C22.5026 62.3338 19.1205 60.9754 16.062 60.0579Z" fill="white"/>
<rect x="35.6157" y="129.893" width="97.7686" height="11.1736" rx="3" fill="#111117"/>
<rect x="42.5992" y="132.686" width="83.4292" height="5.58678" rx="1" fill="#3B3B4A"/>
<rect x="42.5992" y="132.686" width="6.28512" height="5.58678" rx="1" fill="white"/>
</svg>
